<svg width="24" height="24" viewBox="0 0 24 24" fill="none" xmlns="http://www.w3.org/2000/svg">
<path fill-rule="evenodd" clip-rule="evenodd" d="M13.2 6.14145L17.2607 9.16093L20.5431 7.83897C19.1675 5.01959 16.4375 2.98228 13.2 2.57422V6.14145ZM10.8 2.57422C7.56253 2.98228 4.83246 5.01959 3.45695 7.83897L6.73925 9.16093L10.8 6.14145V2.57422ZM6.10778 11.494L2.68662 10.1161C2.56422 10.7248 2.5 11.3545 2.5 11.9992C2.5 14.9651 3.85918 17.6136 5.98865 19.3558L7.9924 15.8709L6.10778 11.494ZM9.96836 17.2492L8.0245 20.6299C9.23393 21.1879 10.5806 21.4992 12 21.4992C13.4194 21.4992 14.7661 21.1879 15.9755 20.6299L14.0316 17.2492H9.96836ZM16.0076 15.8709L18.0113 19.3558C20.1408 17.6136 21.5 14.9651 21.5 11.9992C21.5 11.3545 21.4358 10.7248 21.3134 10.1161L17.8922 11.494L16.0076 15.8709ZM15.5452 10.8761L12 8.23993L8.45477 10.8761L10.1655 14.8492H13.8345L15.5452 10.8761Z" fill="white"/>
</svg>
